<?xml version="1.0" standalone="no"?><!DOCTYPE svg PUBLIC "-//W3C//DTD SVG 1.1//EN" "http://www.w3.org/Graphics/SVG/1.1/DTD/svg11.dtd"><svg t="1683293204544" class="icon" viewBox="0 0 1024 1024" version="1.1" xmlns="http://www.w3.org/2000/svg" p-id="2468" xmlns:xlink="http://www.w3.org/1999/xlink" width="200" height="200"><path d="M643.145143 530.505143C713.728 463.433143 768 355.474286 768 249.124571 768 85.650286 649.581714 0 512 0S256.731429 85.650286 256.731429 249.124571c0 106.788571 53.906286 215.186286 125.220571 282.038858 27.794286 67.072-21.942857 91.940571-32.329143 95.451428C205.531429 674.377143 36.571429 761.709714 36.571429 847.725714v32.182857C36.571429 997.449143 284.233143 1024 513.389714 1024 742.912 1024 987.428571 997.376 987.428571 880.054857v-32.256c0-88.722286-169.837714-175.250286-321.024-221.184-6.875429-2.048-50.468571-20.114286-23.186285-96.109714z" fill="#B6B6B6" p-id="2469"></path></svg>